<svg aria-hidden="true" style="width:0;height:0;position:absolute;overflow:hidden" xmlns="http://www.w3.org/2000/svg"><defs><symbol id="icon-logo" viewBox="0 0 32 32"><path fill="none" stroke="#fff" style="stroke:var(--color1,#fff)" stroke-linejoin="round" stroke-linecap="round" stroke-width="2.667" d="M26.427 2.667H5.574a2.907 2.907 0 0 0-2.907 2.907v20.853a2.907 2.907 0 0 0 2.907 2.907h20.853a2.907 2.907 0 0 0 2.907-2.907V5.574a2.907 2.907 0 0 0-2.907-2.907zM9.333 2.667v26.667M22.667 2.667v26.667M2.667 16h26.667M2.667 9.333h6.667M2.667 22.667h6.667M22.667 22.667h6.667M22.667 9.333h6.667"/></symbol><symbol id="icon-search" viewBox="0 0 32 32"><path fill="none" stroke="#fff" style="stroke:var(--color1,#fff)" stroke-linejoin="round" stroke-linecap="round" stroke-width="2.667" d="M14.667 25.333c5.891 0 10.667-4.776 10.667-10.667S20.558 3.999 14.667 3.999 4 8.775 4 14.666s4.776 10.667 10.667 10.667zM28 28.001l-5.8-5.8"/></symbol><symbol id="icon-close" viewBox="0 0 32 32"><path d="M32 3.223 28.777 0 16 12.777 3.223 0 0 3.223 12.777 16 0 28.777 3.223 32 16 19.223 28.777 32 32 28.777 19.223 16 32 3.223z"/></symbol><symbol id="icon-arrow-right" viewBox="0 0 32 32"><path d="m19.414 27.414 10-10a2 2 0 0 0 0-2.828l-10-10a2 2 0 1 0-2.828 2.828L23.172 14H4a2 2 0 1 0 0 4h19.172l-6.586 6.586c-.39.39-.586.902-.586 1.414s.195 1.024.586 1.414a2 2 0 0 0 2.828 0z"/></symbol><symbol id="icon-arrow-left" viewBox="0 0 32 32"><path d="m12.586 27.414-10-10a2 2 0 0 1 0-2.828l10-10a2 2 0 1 1 2.828 2.828L8.828 14H28a2 2 0 1 1 0 4H8.828l6.586 6.586c.39.39.586.902.586 1.414s-.195 1.024-.586 1.414a2 2 0 0 1-2.828 0z"/></symbol><symbol id="dots" viewBox="0 0 107 32"><path d="M17.25 5.333c2.833 0 5.021.813 6.562 2.438 1.542 1.583 2.313 3.583 2.313 6 0 2.375-.771 4.354-2.313 5.938-1.542 1.542-3.729 2.312-6.562 2.312-2.708 0-4.854-.771-6.438-2.312s-2.375-3.521-2.375-5.938.771-4.417 2.312-6c1.542-1.625 3.708-2.438 6.5-2.438zm35.75 0c2.833 0 5.021.813 6.562 2.438 1.542 1.583 2.313 3.583 2.313 6 0 2.375-.771 4.354-2.313 5.938-1.542 1.542-3.729 2.312-6.562 2.312-2.708 0-4.854-.771-6.438-2.312s-2.375-3.521-2.375-5.938.771-4.417 2.313-6c1.542-1.625 3.708-2.438 6.5-2.438zm35.75 0c2.833 0 5.021.813 6.563 2.438 1.542 1.583 2.312 3.583 2.312 6 0 2.375-.771 4.354-2.312 5.938-1.542 1.542-3.729 2.312-6.563 2.312-2.708 0-4.854-.771-6.437-2.312s-2.375-3.521-2.375-5.938.771-4.417 2.313-6c1.542-1.625 3.708-2.438 6.5-2.438z"/></symbol><symbol id="icon-chevron-up-circle-outline" viewBox="0 0 32 32"><path d="M0 16c0 8.837 7.163 16 16 16s16-7.163 16-16S24.837 0 16 0 0 7.163 0 16zm29 0c0 7.18-5.82 13-13 13S3 23.18 3 16 8.82 3 16 3s13 5.82 13 13z"/><path d="m22.086 20.914 2.829-2.829-8.914-8.914-8.914 8.914 2.828 2.828 6.086-6.086z"/></symbol><symbol id="icon-brightness" viewBox="0 0 32 32"><path d="M16 8a8 8 0 1 0 0 16 8 8 0 0 0 0-16zm0 13V11c2.757 0 5 2.243 5 5s-2.243 5-5 5zm0 5a2 2 0 0 1 2 2v2a2 2 0 1 1-4 0v-2a2 2 0 0 1 2-2zm0-20a2 2 0 0 1-2-2V2a2 2 0 1 1 4 0v2a2 2 0 0 1-2 2zm14 8a2 2 0 1 1 0 4h-2a2 2 0 1 1 0-4h2zM6 16a2 2 0 0 1-2 2H2a2 2 0 1 1 0-4h2a2 2 0 0 1 2 2zm19.899 7.071 1.414 1.414a2 2 0 1 1-2.828 2.828l-1.414-1.414a2 2 0 1 1 2.828-2.828zM6.101 8.929 4.687 7.515a2 2 0 1 1 2.828-2.828l1.414 1.414a2 2 0 1 1-2.828 2.828zm19.798 0a2 2 0 1 1-2.828-2.828l1.414-1.414a2 2 0 1 1 2.828 2.828l-1.414 1.414zM6.101 23.071a2 2 0 1 1 2.828 2.828l-1.414 1.414a2 2 0 1 1-2.828-2.828l1.414-1.414z"/></symbol><symbol id="icon-darkness" viewBox="0 0 32 32"><path d="M16 0C7.163 0 0 7.163 0 16s7.163 16 16 16 16-7.163 16-16S24.837 0 16 0zM4 16C4 9.373 9.373 4 16 4v24C9.373 28 4 22.627 4 16z"/></symbol><symbol id="icon-heart" viewBox="0 0 34 32"><path d="m17.231 31.705-2.412-2.412C5.859 21.367.001 16.025.001 9.478.001 4.136 4.136.001 9.478.001c2.929 0 5.858 1.378 7.754 3.618 1.895-2.24 4.825-3.618 7.754-3.618 5.342 0 9.477 4.135 9.477 9.477 0 6.548-5.858 11.889-14.818 19.815l-2.412 2.412z"/></symbol><symbol id="github" viewBox="0 0 32 32"><path d="M16 .395c-8.836 0-16 7.163-16 16 0 7.069 4.585 13.067 10.942 15.182.8.148 1.094-.347 1.094-.77 0-.381-.015-1.642-.022-2.979-4.452.968-5.391-1.888-5.391-1.888-.728-1.849-1.776-2.341-1.776-2.341-1.452-.993.11-.973.11-.973 1.606.113 2.452 1.649 2.452 1.649 1.427 2.446 3.743 1.739 4.656 1.33.143-1.034.558-1.74 1.016-2.14-3.554-.404-7.29-1.777-7.29-7.907 0-1.747.625-3.174 1.649-4.295-.166-.403-.714-2.03.155-4.234 0 0 1.344-.43 4.401 1.64a15.353 15.353 0 0 1 4.005-.539c1.359.006 2.729.184 4.008.539 3.054-2.07 4.395-1.64 4.395-1.64.871 2.204.323 3.831.157 4.234 1.026 1.12 1.647 2.548 1.647 4.295 0 6.145-3.743 7.498-7.306 7.895.574.497 1.085 1.47 1.085 2.963 0 2.141-.019 3.864-.019 4.391 0 .426.288.925 1.099.768C27.421 29.457 32 23.462 32 16.395c0-8.837-7.164-16-16-16z"/></symbol><symbol id="icon-youtube-svgrepo-com" viewBox="0 0 32 32"><path fill="#ea4640" style="fill:var(--color1,#ea4640)" d="M31.347 11.755v8.49a6.534 6.534 0 0 1-6.531 6.531H7.183a6.534 6.534 0 0 1-6.531-6.531v-8.49a6.534 6.534 0 0 1 6.531-6.531h17.633a6.534 6.534 0 0 1 6.531 6.531z"/><path fill="#fff" style="fill:var(--color2,#fff)" d="m20.898 16-7.837 3.265v-6.531z"/><path fill="#231f20" style="fill:var(--color3,#231f20)" d="M24.816 4.571H7.183c-3.961 0-7.184 3.223-7.184 7.184v8.49c0 3.961 3.223 7.184 7.184 7.184h17.633c3.961 0 7.184-3.223 7.184-7.184v-8.49c0-3.961-3.223-7.184-7.184-7.184zm5.878 15.674a5.885 5.885 0 0 1-5.878 5.878H7.183a5.885 5.885 0 0 1-5.878-5.878v-8.49a5.885 5.885 0 0 1 5.878-5.878h17.633a5.885 5.885 0 0 1 5.878 5.878v8.49z"/><path fill="#231f20" style="fill:var(--color3,#231f20)" d="m21.149 15.397-7.837-3.265a.652.652 0 0 0-.904.602v6.531a.652.652 0 0 0 .904.603l7.837-3.265a.653.653 0 0 0 0-1.206zm-7.435 2.889v-4.571l5.486 2.286-5.486 2.286z"/></symbol><symbol id="icon-cinema-camera" viewBox="0 0 32 32"><path d="M20.66 13.349H3.327a1.87 1.87 0 0 0-1.867 1.867v12.056a1.87 1.87 0 0 0 1.867 1.867H20.66a1.87 1.87 0 0 0 1.867-1.867V15.216a1.87 1.87 0 0 0-1.867-1.867zm.8 13.922c0 .441-.359.8-.8.8H3.327a.801.801 0 0 1-.8-.8v-.8H21.46v.8zm0-1.867H2.527V15.215c0-.441.359-.8.8-.8H20.66c.441 0 .8.359.8.8v10.189zM28.571 14.392c-.18.079-4.421 1.947-4.421 5.1 0 3.155 4.241 5.023 4.421 5.1.221.096.444.144.66.144.759 0 1.309-.605 1.309-1.439v-7.612c0-1.071-.968-1.725-1.969-1.293zm.902 8.907c0 .352-.192.439-.479.315-.037-.016-3.779-1.66-3.779-4.121 0-2.452 3.741-4.105 3.777-4.121a.614.614 0 0 1 .237-.056c.161 0 .243.125.243.372V23.3zM5.952 11.845c2.476 0 4.492-2.015 4.492-4.492S8.428 2.862 5.952 2.862 1.46 4.877 1.46 7.354s2.015 4.491 4.492 4.491zm0-7.916c1.889 0 3.425 1.536 3.425 3.425s-1.537 3.424-3.425 3.424-3.425-1.536-3.425-3.424 1.536-3.425 3.425-3.425zM16.535 11.845c2.476 0 4.492-2.015 4.492-4.492s-2.015-4.492-4.492-4.492-4.491 2.016-4.491 4.493 2.015 4.491 4.491 4.491zm0-7.916c1.889 0 3.425 1.536 3.425 3.425s-1.536 3.425-3.425 3.425-3.424-1.537-3.424-3.425 1.536-3.425 3.424-3.425z"/></symbol><symbol id="icon-clapperboard" viewBox="0 0 32 32"><path fill="#999" style="fill:var(--color1,#999)" d="M8.417 14.918h-.004a.63.63 0 0 0-.2.033l.004-.001-4.083 1.4a.616.616 0 0 0-.418.582V29.228c0 .34.276.616.616.616H29.551c.34 0 .616-.276.616-.616V15.531a.616.616 0 0 0-.616-.614h-.003z"/><path fill="#3e3e3e" style="fill:var(--color2,#3e3e3e)" d="M7.162 23.162a.615.615 0 0 0-.613.613v.002c0 .339.274.615.613.616h3.419v2.07c0 .339.274.615.613.616h.002c.34 0 .616-.276.616-.616v-2.071h4.146v2.07c0 .339.274.615.613.616h.002c.34 0 .616-.276.616-.616v-2.071h4.143v2.07c0 .34.276.616.616.616h.003a.616.616 0 0 0 .613-.616V24.39h4.091a.616.616 0 0 0 .615-.616v-.003a.615.615 0 0 0-.615-.613H21.95zM27.443 2.157l-.03-.001a.628.628 0 0 0-.138.015l.004-.001-6.515 1.409a.616.616 0 0 0-.34.996l-.001-.001 4.033 4.892a.614.614 0 0 0 .608.208l-.004.001 3.674-.796a.618.618 0 0 0 .472-.736l.001.004-1.196-5.506a.617.617 0 0 0-.567-.486h-.002z"/><path fill="#e6e6e6" style="fill:var(--color3,#e6e6e6)" d="M20.837 3.571a.622.622 0 0 0-.077.01l.004-.001-7.615 1.65a.617.617 0 0 0-.322 1.019l4.387 4.815a.615.615 0 0 0 .586.186l-.004.001 7.265-1.573a.617.617 0 0 0 .344-.992l.001.001-4.033-4.892a.617.617 0 0 0-.54-.223h.003z"/><path fill="#242424" style="fill:var(--color4,#242424)" d="M27.391 2.156a.55.55 0 0 0-.116.015l.004-.001-.684.148a.612.612 0 0 1 .184.32l.001.004 1.196 5.506a.616.616 0 0 1-.469.731l-.004.001-2.989.647a.61.61 0 0 0 .551.147l-.004.001 3.674-.795a.618.618 0 0 0 .472-.736l.001.004-1.196-5.506a.618.618 0 0 0-.567-.486h-.002l-.026-.001-.027.001h.001z"/><path fill="#ccc" style="fill:var(--color5,#ccc)" d="M20.873 3.569c-.013.001-.025.001-.037.003h.003a.598.598 0 0 0-.077.01l.004-.001-.684.148c.022.02.043.042.062.065l.001.001 4.032 4.892a.614.614 0 0 1-.341.991l-.004.001-6.579 1.423a.612.612 0 0 0 .549.149l-.004.001 7.266-1.572a.617.617 0 0 0 .344-.993l.001.001-4.032-4.892a.615.615 0 0 0-.476-.225l-.027.001h.001z"/><path fill="#3e3e3e" style="fill:var(--color2,#3e3e3e)" d="M13.29 5.216h-.01a.607.607 0 0 0-.135.015l.004-.001-7.497 1.628a.617.617 0 0 0-.344.993l-.001-.001 4.033 4.892a.614.614 0 0 0 .608.208l-.004.001 7.852-1.7a.617.617 0 0 0 .327-1.014v.001l-4.387-4.815a.613.613 0 0 0-.445-.205h-.001z"/><path fill="#e6e6e6" style="fill:var(--color3,#e6e6e6)" d="M5.721 6.844a.605.605 0 0 0-.072.015l.004-.001-2.792.605a.618.618 0 0 0-.472.736l-.001-.004.75 3.433a.616.616 0 0 0 .45.467l.004.001 4.756 1.141a.584.584 0 0 0 .277-.001l-.004.001 1.323-.286a.617.617 0 0 0 .344-.992l.001.001-4.033-4.892a.617.617 0 0 0-.54-.223h.003z"/><path fill="gray" style="fill:var(--color6,gray)" d="M8.417 14.918h-.002a.612.612 0 0 0-.202.034l.004-.001-4.083 1.4a.618.618 0 0 0-.419.582v6.529l3.269-1.121a.596.596 0 0 1 .198-.033H28.317c.34 0 .615.275.616.615v6.92h.615c.34 0 .616-.276.616-.616V15.531a.616.616 0 0 0-.616-.614h-.002z"/><path fill="#3e3e3e" style="fill:var(--color2,#3e3e3e)" d="M25.684 14.918a.614.614 0 0 0-.544.329l-.002.003-2.846 5.528a.616.616 0 0 0 .545.9l6.711.023h.002a.616.616 0 0 0 .616-.614v-5.556a.616.616 0 0 0-.616-.614h-.003z"/><path fill="#e6e6e6" style="fill:var(--color3,#e6e6e6)" d="M18.255 14.918a.615.615 0 0 0-.53.302l-.002.003-3.21 5.538a.616.616 0 0 0 .532.923l7.793-.005h.001a.615.615 0 0 0 .547-.333l.002-.003 2.842-5.528a.616.616 0 0 0-.546-.896z"/><path fill="#3e3e3e" style="fill:var(--color2,#3e3e3e)" d="M10.226 14.918a.614.614 0 0 0-.544.329l-.002.003-2.855 5.547a.616.616 0 0 0 .547.9h.004l7.67-.014a.615.615 0 0 0 .53-.302l.002-.003 3.21-5.538a.616.616 0 0 0-.532-.923z"/><path fill="#e6e6e6" style="fill:var(--color3,#e6e6e6)" d="M8.417 14.918h-.004a.63.63 0 0 0-.2.033l.004-.001-4.083 1.4a.616.616 0 0 0-.418.582v4.155a.616.616 0 0 0 .616.614h.003l3.042-.005a.615.615 0 0 0 .544-.333l.002-.003 2.855-5.547a.616.616 0 0 0-.549-.896h-.001z"/><path fill="#ccc" style="fill:var(--color5,#ccc)" d="M9.011 14.918a.617.617 0 0 1 .533.9l.002-.003-2.856 5.547a.618.618 0 0 1-.546.336l-1.86.002a.773.773 0 0 0 .05.002l3.041-.005a.619.619 0 0 0 .545-.332l.002-.003 2.856-5.547a.616.616 0 0 0-.549-.896h-.003z"/><path fill="#3e3e3e" style="fill:var(--color2,#3e3e3e)" d="M5.639 10.254c-2.093 0-3.805 1.708-3.805 3.801s1.712 3.805 3.805 3.805 3.801-1.712 3.801-3.805-1.708-3.801-3.801-3.801z"/><path fill="#242424" style="fill:var(--color4,#242424)" d="M13.291 5.217h-.011a.6.6 0 0 0-.135.015l.004-.001-.687.149c.015.014.029.027.042.042l4.387 4.814a.616.616 0 0 1-.323 1.013l-.004.001-7.166 1.553a.612.612 0 0 0 .55.146l-.004.001 7.851-1.701a.617.617 0 0 0 .326-1.015v.001l-4.387-4.814a.613.613 0 0 0-.444-.205h-.001z"/><path fill="#ccc" style="fill:var(--color5,#ccc)" d="M5.756 6.842c-.013.001-.025.001-.037.003h.003a.67.67 0 0 0-.073.015l.004-.001-.684.148a.643.643 0 0 1 .057.06l.001.001 4.032 4.892a.617.617 0 0 1-.341.99l-.004.001-.819.177.455.109a.587.587 0 0 0 .278-.001l-.004.001 1.323-.286a.617.617 0 0 0 .344-.993l.001.001L6.26 7.067a.615.615 0 0 0-.476-.225l-.027.001h.001z"/><path fill="#242424" style="fill:var(--color4,#242424)" d="M5.639 10.253a3.808 3.808 0 0 0-3.232 1.807 3.777 3.777 0 0 1 2-.575c2.093 0 3.8 1.708 3.8 3.801 0 .733-.213 1.417-.575 1.999a3.807 3.807 0 0 0 1.807-3.231 3.808 3.808 0 0 0-3.8-3.801zM17.023 14.918a.616.616 0 0 1 .53.926l.002-.003-3.209 5.538a.617.617 0 0 1-.531.304l-6.476.012a.37.37 0 0 0 .036.002h.001l7.671-.014a.617.617 0 0 0 .53-.302l.002-.003 3.209-5.538a.614.614 0 0 0-.531-.923z"/><path fill="#ccc" style="fill:var(--color5,#ccc)" d="M24.463 14.918a.617.617 0 0 1 .533.9l.002-.003-2.841 5.529a.617.617 0 0 1-.548.336h-.001l-6.588.005a.226.226 0 0 0 .027.001l7.793-.005h.001a.617.617 0 0 0 .547-.332l.002-.003 2.841-5.529a.616.616 0 0 0-.545-.896z"/><path fill="#242424" style="fill:var(--color4,#242424)" d="M28.352 14.919a.616.616 0 0 1 .582.613v5.555a.616.616 0 0 1-.548.611h-.003l1.164.005h.002c.34 0 .615-.275.616-.615v-5.555a.616.616 0 0 0-.616-.614h-.002z"/><symbol id="icon-menu" viewBox="0 0 32 32"><path d="M6.4 11.733V9.6h19.2v2.133H6.4zm0 5.334h19.2v-2.133H6.4v2.133zm0 5.333h19.2v-2.133H6.4V22.4z"/></symbol><symbol id="icon-close" viewBox="0 0 32 32"><path d="m26.667 7.303-1.97-1.97-7.808 7.808-7.808-7.808-1.97 1.97 7.808 7.808-7.808 7.808 1.97 1.97 7.808-7.808 7.808 7.808 1.97-1.97-7.808-7.808 7.808-7.808z"/></symbol></symbol></defs></svg>