<svg aria-hidden="true" style="position: absolute; width: 0; height: 0; overflow: hidden;" version="1.1" xmlns="http://www.w3.org/2000/svg" xmlns:xlink="http://www.w3.org/1999/xlink">
<defs>
<symbol id="icon-logo" viewBox="0 0 32 32">
<path fill="none" stroke="#fff" style="stroke: var(--color1, #fff)" stroke-linejoin="round" stroke-linecap="round" stroke-miterlimit="4" stroke-width="2.6667" d="M26.427 2.667h-20.853c-1.605 0-2.907 1.301-2.907 2.907v20.853c0 1.605 1.301 2.907 2.907 2.907h20.853c1.605 0 2.907-1.301 2.907-2.907v-20.853c0-1.605-1.301-2.907-2.907-2.907z"></path>
<path fill="none" stroke="#fff" style="stroke: var(--color1, #fff)" stroke-linejoin="round" stroke-linecap="round" stroke-miterlimit="4" stroke-width="2.6667" d="M9.333 2.667v26.667"></path>
<path fill="none" stroke="#fff" style="stroke: var(--color1, #fff)" stroke-linejoin="round" stroke-linecap="round" stroke-miterlimit="4" stroke-width="2.6667" d="M22.667 2.667v26.667"></path>
<path fill="none" stroke="#fff" style="stroke: var(--color1, #fff)" stroke-linejoin="round" stroke-linecap="round" stroke-miterlimit="4" stroke-width="2.6667" d="M2.667 16h26.667"></path>
<path fill="none" stroke="#fff" style="stroke: var(--color1, #fff)" stroke-linejoin="round" stroke-linecap="round" stroke-miterlimit="4" stroke-width="2.6667" d="M2.667 9.333h6.667"></path>
<path fill="none" stroke="#fff" style="stroke: var(--color1, #fff)" stroke-linejoin="round" stroke-linecap="round" stroke-miterlimit="4" stroke-width="2.6667" d="M2.667 22.667h6.667"></path>
<path fill="none" stroke="#fff" style="stroke: var(--color1, #fff)" stroke-linejoin="round" stroke-linecap="round" stroke-miterlimit="4" stroke-width="2.6667" d="M22.667 22.667h6.667"></path>
<path fill="none" stroke="#fff" style="stroke: var(--color1, #fff)" stroke-linejoin="round" stroke-linecap="round" stroke-miterlimit="4" stroke-width="2.6667" d="M22.667 9.333h6.667"></path>
</symbol>
<symbol id="icon-search" viewBox="0 0 32 32">
<path fill="none" stroke="#fff" style="stroke: var(--color1, #fff)" stroke-linejoin="round" stroke-linecap="round" stroke-miterlimit="4" stroke-width="2.6667" d="M14.667 25.333c5.891 0 10.667-4.776 10.667-10.667s-4.776-10.667-10.667-10.667c-5.891 0-10.667 4.776-10.667 10.667s4.776 10.667 10.667 10.667z"></path>
<path fill="none" stroke="#fff" style="stroke: var(--color1, #fff)" stroke-linejoin="round" stroke-linecap="round" stroke-miterlimit="4" stroke-width="2.6667" d="M28 28.001l-5.8-5.8"></path>
</symbol>
<symbol id="icon-close" viewBox="0 0 32 32">
<path d="M32 3.223l-3.223-3.223-12.777 12.777-12.777-12.777-3.223 3.223 12.777 12.777-12.777 12.777 3.223 3.223 12.777-12.777 12.777 12.777 3.223-3.223-12.777-12.777 12.777-12.777z"></path>
</symbol>
<symbol id="icon-arrow-right" viewBox="0 0 32 32">
<path d="M19.414 27.414l10-10c0.781-0.781 0.781-2.047 0-2.828l-10-10c-0.781-0.781-2.047-0.781-2.828 0s-0.781 2.047 0 2.828l6.586 6.586h-19.172c-1.105 0-2 0.895-2 2s0.895 2 2 2h19.172l-6.586 6.586c-0.39 0.39-0.586 0.902-0.586 1.414s0.195 1.024 0.586 1.414c0.781 0.781 2.047 0.781 2.828 0z"></path>
</symbol>
<symbol id="icon-arrow-left" viewBox="0 0 32 32">
<path d="M12.586 27.414l-10-10c-0.781-0.781-0.781-2.047 0-2.828l10-10c0.781-0.781 2.047-0.781 2.828 0s0.781 2.047 0 2.828l-6.586 6.586h19.172c1.105 0 2 0.895 2 2s-0.895 2-2 2h-19.172l6.586 6.586c0.39 0.39 0.586 0.902 0.586 1.414s-0.195 1.024-0.586 1.414c-0.781 0.781-2.047 0.781-2.828 0z"></path>
</symbol>
<symbol id="dots" viewBox="0 0 107 32">
<path d="M17.25 5.333c2.833 0 5.021 0.813 6.562 2.438 1.542 1.583 2.313 3.583 2.313 6 0 2.375-0.771 4.354-2.313 5.938-1.542 1.542-3.729 2.312-6.562 2.312-2.708 0-4.854-0.771-6.438-2.312s-2.375-3.521-2.375-5.938c0-2.417 0.771-4.417 2.312-6 1.542-1.625 3.708-2.438 6.5-2.438zM53 5.333c2.833 0 5.021 0.813 6.562 2.438 1.542 1.583 2.313 3.583 2.313 6 0 2.375-0.771 4.354-2.313 5.938-1.542 1.542-3.729 2.312-6.562 2.312-2.708 0-4.854-0.771-6.438-2.312s-2.375-3.521-2.375-5.938c0-2.417 0.771-4.417 2.313-6 1.542-1.625 3.708-2.438 6.5-2.438zM88.75 5.333c2.833 0 5.021 0.813 6.563 2.438 1.542 1.583 2.312 3.583 2.312 6 0 2.375-0.771 4.354-2.312 5.938-1.542 1.542-3.729 2.312-6.563 2.312-2.708 0-4.854-0.771-6.437-2.312s-2.375-3.521-2.375-5.938c0-2.417 0.771-4.417 2.313-6 1.542-1.625 3.708-2.438 6.5-2.438z"></path>
</symbol>
<symbol id="icon-chevron-up-circle-outline" viewBox="0 0 32 32">
<path d="M0 16c0 8.837 7.163 16 16 16s16-7.163 16-16-7.163-16-16-16-16 7.163-16 16zM29 16c0 7.18-5.82 13-13 13s-13-5.82-13-13 5.82-13 13-13 13 5.82 13 13z"></path>
<path d="M22.086 20.914l2.829-2.829-8.914-8.914-8.914 8.914 2.828 2.828 6.086-6.086z"></path>
</symbol>
<symbol id="icon-brightness" viewBox="0 0 32 32">
<path d="M16 8c-4.418 0-8 3.582-8 8s3.582 8 8 8 8-3.582 8-8-3.582-8-8-8zM16 21v-10c2.757 0 5 2.243 5 5s-2.243 5-5 5zM16 26c1.105 0 2 0.895 2 2v2c0 1.105-0.895 2-2 2s-2-0.895-2-2v-2c0-1.105 0.895-2 2-2zM16 6c-1.105 0-2-0.895-2-2v-2c0-1.105 0.895-2 2-2s2 0.895 2 2v2c0 1.105-0.895 2-2 2zM30 14c1.105 0 2 0.895 2 2s-0.895 2-2 2h-2c-1.105 0-2-0.895-2-2s0.895-2 2-2h2zM6 16c0 1.105-0.895 2-2 2h-2c-1.105 0-2-0.895-2-2s0.895-2 2-2h2c1.105 0 2 0.895 2 2zM25.899 23.071l1.414 1.414c0.781 0.781 0.781 2.047 0 2.828s-2.047 0.781-2.828 0l-1.414-1.414c-0.781-0.781-0.781-2.047 0-2.828s2.047-0.781 2.828 0zM6.101 8.929l-1.414-1.414c-0.781-0.781-0.781-2.047 0-2.828s2.047-0.781 2.828 0l1.414 1.414c0.781 0.781 0.781 2.047 0 2.828s-2.047 0.781-2.828 0zM25.899 8.929c-0.781 0.781-2.047 0.781-2.828 0s-0.781-2.047 0-2.828l1.414-1.414c0.781-0.781 2.047-0.781 2.828 0s0.781 2.047 0 2.828l-1.414 1.414zM6.101 23.071c0.781-0.781 2.047-0.781 2.828 0s0.781 2.047 0 2.828l-1.414 1.414c-0.781 0.781-2.047 0.781-2.828 0s-0.781-2.047 0-2.828l1.414-1.414z"></path>
</symbol>
<symbol id="icon-darkness" viewBox="0 0 32 32">
<path d="M16 0c-8.837 0-16 7.163-16 16s7.163 16 16 16 16-7.163 16-16-7.163-16-16-16zM4 16c0-6.627 5.373-12 12-12v24c-6.627 0-12-5.373-12-12z"></path>
</symbol>
<symbol id="icon-heart" viewBox="0 0 34 32">
<path d="M17.231 31.705l-2.412-2.412c-8.96-7.926-14.818-13.268-14.818-19.815 0-5.342 4.135-9.477 9.477-9.477 2.929 0 5.858 1.378 7.754 3.618 1.895-2.24 4.825-3.618 7.754-3.618 5.342 0 9.477 4.135 9.477 9.477 0 6.548-5.858 11.889-14.818 19.815l-2.412 2.412z"></path>
</symbol>
<symbol id="github" viewBox="0 0 32 32">
<path d="M16 0.395c-8.836 0-16 7.163-16 16 0 7.069 4.585 13.067 10.942 15.182 0.8 0.148 1.094-0.347 1.094-0.77 0-0.381-0.015-1.642-0.022-2.979-4.452 0.968-5.391-1.888-5.391-1.888-0.728-1.849-1.776-2.341-1.776-2.341-1.452-0.993 0.11-0.973 0.11-0.973 1.606 0.113 2.452 1.649 2.452 1.649 1.427 2.446 3.743 1.739 4.656 1.33 0.143-1.034 0.558-1.74 1.016-2.14-3.554-0.404-7.29-1.777-7.29-7.907 0-1.747 0.625-3.174 1.649-4.295-0.166-0.403-0.714-2.030 0.155-4.234 0 0 1.344-0.43 4.401 1.64 1.276-0.355 2.645-0.532 4.005-0.539 1.359 0.006 2.729 0.184 4.008 0.539 3.054-2.070 4.395-1.64 4.395-1.64 0.871 2.204 0.323 3.831 0.157 4.234 1.026 1.12 1.647 2.548 1.647 4.295 0 6.145-3.743 7.498-7.306 7.895 0.574 0.497 1.085 1.47 1.085 2.963 0 2.141-0.019 3.864-0.019 4.391 0 0.426 0.288 0.925 1.099 0.768 6.354-2.118 10.933-8.113 10.933-15.18 0-8.837-7.164-16-16-16z"></path>
</symbol>
<symbol id="icon-youtube-svgrepo-com" viewBox="0 0 32 32">
<path fill="#ea4640" style="fill: var(--color1, #ea4640)" d="M31.347 11.755v8.49c0 3.605-2.926 6.531-6.531 6.531h-17.633c-3.605 0-6.531-2.926-6.531-6.531v-8.49c0-3.605 2.926-6.531 6.531-6.531h17.633c3.605 0 6.531 2.926 6.531 6.531z"></path>
<path fill="#fff" style="fill: var(--color2, #fff)" d="M20.898 16l-7.837 3.265v-6.531z"></path>
<path fill="#231f20" style="fill: var(--color3, #231f20)" d="M24.816 4.571h-17.633c-3.961 0-7.184 3.223-7.184 7.184v8.49c0 3.961 3.223 7.184 7.184 7.184h17.633c3.961 0 7.184-3.223 7.184-7.184v-8.49c0-3.961-3.223-7.184-7.184-7.184zM30.694 20.245c0 3.241-2.637 5.878-5.878 5.878h-17.633c-3.241 0-5.878-2.637-5.878-5.878v-8.49c0-3.241 2.637-5.878 5.878-5.878h17.633c3.241 0 5.878 2.637 5.878 5.878v8.49z"></path>
<path fill="#231f20" style="fill: var(--color3, #231f20)" d="M21.149 15.397l-7.837-3.265c-0.201-0.084-0.432-0.062-0.613 0.059s-0.291 0.325-0.291 0.543v6.531c0 0.218 0.109 0.422 0.291 0.543 0.109 0.073 0.235 0.11 0.362 0.11 0.085 0 0.17-0.017 0.251-0.050l7.837-3.265c0.243-0.101 0.402-0.339 0.402-0.603s-0.159-0.501-0.402-0.603zM13.714 18.286v-4.571l5.486 2.286-5.486 2.286z"></path>
</symbol>
<symbol id="icon-cinema-camera" viewBox="0 0 32 32">
<path d="M20.66 13.349h-17.333c-1.029 0-1.867 0.837-1.867 1.867v12.056c0 1.029 0.837 1.867 1.867 1.867h17.333c1.029 0 1.867-0.837 1.867-1.867v-12.056c0-1.029-0.837-1.867-1.867-1.867zM21.46 27.271c0 0.441-0.359 0.8-0.8 0.8h-17.333c-0.441 0-0.8-0.359-0.8-0.8v-0.8h18.933v0.8zM21.46 25.404h-18.933v-10.189c0-0.441 0.359-0.8 0.8-0.8h17.333c0.441 0 0.8 0.359 0.8 0.8v10.189z"></path>
<path d="M28.571 14.392c-0.18 0.079-4.421 1.947-4.421 5.1 0 3.155 4.241 5.023 4.421 5.1 0.221 0.096 0.444 0.144 0.66 0.144 0.759 0 1.309-0.605 1.309-1.439v-7.612c0-1.071-0.968-1.725-1.969-1.293zM29.473 23.299c0 0.352-0.192 0.439-0.479 0.315-0.037-0.016-3.779-1.66-3.779-4.121 0-2.452 3.741-4.105 3.777-4.121 0.085-0.037 0.168-0.056 0.237-0.056 0.161 0 0.243 0.125 0.243 0.372v7.612z"></path>
<path d="M5.952 11.845c2.476 0 4.492-2.015 4.492-4.492s-2.016-4.491-4.492-4.491-4.492 2.015-4.492 4.492 2.015 4.491 4.492 4.491zM5.952 3.929c1.889 0 3.425 1.536 3.425 3.425s-1.537 3.424-3.425 3.424-3.425-1.536-3.425-3.424 1.536-3.425 3.425-3.425z"></path>
<path d="M16.535 11.845c2.476 0 4.492-2.015 4.492-4.492s-2.015-4.492-4.492-4.492-4.491 2.016-4.491 4.493 2.015 4.491 4.491 4.491zM16.535 3.929c1.889 0 3.425 1.536 3.425 3.425s-1.536 3.425-3.425 3.425-3.424-1.537-3.424-3.425 1.536-3.425 3.424-3.425z"></path>
</symbol>
<symbol id="icon-clapperboard" viewBox="0 0 32 32">
<path fill="#999" style="fill: var(--color1, #999)" d="M8.417 14.918c-0.001 0-0.003 0-0.004 0-0.070 0-0.137 0.012-0.2 0.033l0.004-0.001-4.083 1.4c-0.245 0.085-0.418 0.313-0.418 0.582v12.294c0 0.001 0 0.002 0 0.002 0 0.34 0.276 0.616 0.616 0.616 0.001 0 0.002 0 0.003 0h25.214c0.001 0 0.002 0 0.002 0 0.34 0 0.616-0.276 0.616-0.616 0-0.001 0-0.002 0-0.003v0-13.694c-0.001-0.339-0.277-0.614-0.616-0.614-0.001 0-0.002 0-0.003 0h0z"></path>
<path fill="#3e3e3e" style="fill: var(--color2, #3e3e3e)" d="M7.162 23.162c-0.338 0.001-0.612 0.275-0.613 0.613v0c0 0.001 0 0.002 0 0.002 0 0.339 0.274 0.615 0.613 0.616h3.419v2.068c0 0.001 0 0.002 0 0.002 0 0.339 0.274 0.615 0.613 0.616h0c0.001 0 0.002 0 0.002 0 0.34 0 0.616-0.276 0.616-0.616 0-0.001 0-0.002 0-0.003v0-2.068h4.146v2.068c0 0.001 0 0.002 0 0.002 0 0.339 0.274 0.615 0.613 0.616h0c0.001 0 0.002 0 0.002 0 0.34 0 0.616-0.276 0.616-0.616 0-0.001 0-0.002 0-0.003v0-2.068h4.143v2.068c0 0.001 0 0.002 0 0.002 0 0.34 0.276 0.616 0.616 0.616 0.001 0 0.002 0 0.003 0h-0c0.339-0.001 0.613-0.277 0.613-0.616 0-0.001 0-0.002 0-0.003v0-2.068h4.091c0.34-0.001 0.615-0.276 0.615-0.616 0-0.001 0-0.002 0-0.003v0c-0.001-0.339-0.276-0.613-0.615-0.613h-4.705z"></path>
<path fill="#3e3e3e" style="fill: var(--color2, #3e3e3e)" d="M27.443 2.157c-0.009-0-0.019-0.001-0.030-0.001-0.047 0-0.094 0.005-0.138 0.015l0.004-0.001-6.515 1.409c-0.279 0.063-0.483 0.308-0.483 0.601 0 0.15 0.054 0.288 0.143 0.395l-0.001-0.001 4.033 4.892c0.114 0.137 0.284 0.223 0.474 0.223 0.046 0 0.091-0.005 0.134-0.015l-0.004 0.001 3.674-0.796c0.28-0.062 0.487-0.308 0.487-0.602 0-0.046-0.005-0.091-0.015-0.134l0.001 0.004-1.196-5.506c-0.059-0.269-0.288-0.47-0.567-0.486l-0.002-0z"></path>
<path fill="#e6e6e6" style="fill: var(--color3, #e6e6e6)" d="M20.837 3.571c-0.027 0.002-0.052 0.005-0.077 0.010l0.004-0.001-7.615 1.65c-0.279 0.062-0.485 0.308-0.485 0.602 0 0.161 0.062 0.307 0.163 0.417l-0-0 4.387 4.815c0.113 0.123 0.275 0.2 0.454 0.2 0.045 0 0.089-0.005 0.132-0.014l-0.004 0.001 7.265-1.573c0.279-0.063 0.484-0.308 0.484-0.602 0-0.148-0.052-0.284-0.14-0.39l0.001 0.001-4.033-4.892c-0.114-0.138-0.285-0.226-0.477-0.226-0.021 0-0.042 0.001-0.063 0.003l0.003-0z"></path>
<path fill="#242424" style="fill: var(--color4, #242424)" d="M27.391 2.156c-0.040 0.001-0.079 0.006-0.116 0.015l0.004-0.001-0.684 0.148c0.091 0.084 0.157 0.195 0.184 0.32l0.001 0.004 1.196 5.506c0.009 0.039 0.014 0.084 0.014 0.13 0 0.294-0.207 0.541-0.483 0.601l-0.004 0.001-2.989 0.647c0.109 0.101 0.256 0.162 0.416 0.162 0.046 0 0.092-0.005 0.135-0.015l-0.004 0.001 3.674-0.795c0.28-0.062 0.487-0.308 0.487-0.602 0-0.046-0.005-0.091-0.015-0.134l0.001 0.004-1.196-5.506c-0.059-0.269-0.289-0.47-0.567-0.486l-0.002-0c-0.008-0-0.017-0.001-0.026-0.001s-0.018 0-0.027 0.001l0.001-0z"></path>
<path fill="#ccc" style="fill: var(--color5, #ccc)" d="M20.873 3.569c-0.013 0.001-0.025 0.001-0.037 0.003l0.003-0c-0.027 0.002-0.053 0.005-0.077 0.010l0.004-0.001-0.684 0.148c0.022 0.020 0.043 0.042 0.062 0.065l0.001 0.001 4.032 4.892c0.086 0.105 0.139 0.241 0.139 0.39 0 0.293-0.205 0.539-0.48 0.601l-0.004 0.001-6.579 1.423c0.109 0.101 0.256 0.163 0.417 0.163 0.045 0 0.089-0.005 0.132-0.014l-0.004 0.001 7.266-1.572c0.279-0.063 0.484-0.308 0.484-0.602 0-0.148-0.052-0.284-0.14-0.391l0.001 0.001-4.032-4.892c-0.114-0.138-0.285-0.225-0.476-0.225-0.009 0-0.018 0-0.027 0.001l0.001-0z"></path>
<path fill="#3e3e3e" style="fill: var(--color2, #3e3e3e)" d="M13.29 5.216c-0.003-0-0.007-0-0.010-0-0.046 0-0.091 0.005-0.135 0.015l0.004-0.001-7.497 1.628c-0.279 0.063-0.484 0.308-0.484 0.602 0 0.148 0.052 0.284 0.14 0.391l-0.001-0.001 4.033 4.892c0.114 0.137 0.284 0.223 0.474 0.223 0.046 0 0.091-0.005 0.134-0.015l-0.004 0.001 7.852-1.7c0.279-0.062 0.485-0.308 0.485-0.602 0-0.159-0.060-0.303-0.158-0.412l0 0.001-4.387-4.815c-0.11-0.123-0.268-0.201-0.445-0.205h-0.001z"></path>
<path fill="#e6e6e6" style="fill: var(--color3, #e6e6e6)" d="M5.721 6.844c-0.027 0.004-0.050 0.009-0.072 0.015l0.004-0.001-2.792 0.605c-0.28 0.062-0.487 0.308-0.487 0.602 0 0.046 0.005 0.091 0.015 0.134l-0.001-0.004 0.75 3.433c0.051 0.231 0.226 0.411 0.45 0.467l0.004 0.001 4.756 1.141c0.041 0.010 0.088 0.015 0.136 0.015s0.095-0.006 0.141-0.016l-0.004 0.001 1.323-0.286c0.279-0.063 0.484-0.308 0.484-0.602 0-0.148-0.052-0.284-0.14-0.39l0.001 0.001-4.033-4.892c-0.114-0.138-0.285-0.226-0.477-0.226-0.021 0-0.042 0.001-0.063 0.003l0.003-0z"></path>
<path fill="#808080" style="fill: var(--color6, #808080)" d="M8.417 14.918c-0.001 0-0.001 0-0.002 0-0.071 0-0.139 0.012-0.202 0.034l0.004-0.001-4.083 1.4c-0.245 0.085-0.418 0.313-0.419 0.582v6.529l3.269-1.121c0.059-0.021 0.127-0.033 0.198-0.033 0.001 0 0.001 0 0.002 0h21.131c0.001 0 0.002 0 0.002 0 0.34 0 0.615 0.275 0.616 0.615v6.92h0.613c0.001 0 0.002 0 0.002 0 0.34 0 0.616-0.276 0.616-0.616 0-0.001 0-0.002 0-0.002v0-13.694c-0.001-0.339-0.277-0.614-0.616-0.614-0.001 0-0.002 0-0.002 0h0z"></path>
<path fill="#3e3e3e" style="fill: var(--color2, #3e3e3e)" d="M25.684 14.918c-0.236 0-0.441 0.133-0.544 0.329l-0.002 0.003-2.846 5.528c-0.044 0.082-0.070 0.18-0.070 0.284 0 0.34 0.275 0.615 0.615 0.616h0l6.711 0.023c0.001 0 0.002 0 0.002 0 0.339 0 0.615-0.275 0.616-0.614v-5.556c-0.001-0.339-0.277-0.614-0.616-0.614-0.001 0-0.002 0-0.003 0h0z"></path>
<path fill="#e6e6e6" style="fill: var(--color3, #e6e6e6)" d="M18.255 14.918c-0 0-0 0-0 0-0.225 0-0.423 0.121-0.53 0.302l-0.002 0.003-3.21 5.538c-0.052 0.088-0.082 0.194-0.082 0.307 0 0.339 0.275 0.615 0.614 0.616l7.793-0.005c0 0 0.001 0 0.001 0 0.238 0 0.445-0.135 0.547-0.333l0.002-0.003 2.842-5.528c0.042-0.081 0.067-0.178 0.067-0.28 0-0.339-0.274-0.614-0.613-0.616h-0z"></path>
<path fill="#3e3e3e" style="fill: var(--color2, #3e3e3e)" d="M10.226 14.918c-0.236 0-0.441 0.133-0.544 0.329l-0.002 0.003-2.855 5.547c-0.044 0.082-0.069 0.18-0.069 0.284 0 0.34 0.276 0.616 0.616 0.616 0.001 0 0.003 0 0.004 0h-0l7.67-0.014c0 0 0 0 0 0 0.225 0 0.423-0.121 0.53-0.302l0.002-0.003 3.21-5.538c0.052-0.088 0.082-0.194 0.082-0.307 0-0.339-0.275-0.615-0.614-0.616h-0z"></path>
<path fill="#e6e6e6" style="fill: var(--color3, #e6e6e6)" d="M8.417 14.918c-0.001 0-0.003 0-0.004 0-0.070 0-0.137 0.012-0.2 0.033l0.004-0.001-4.083 1.4c-0.245 0.085-0.418 0.313-0.418 0.582v4.155c0.001 0.339 0.277 0.614 0.616 0.614 0.001 0 0.002 0 0.003 0h-0l3.042-0.005c0.237-0.001 0.442-0.136 0.544-0.333l0.002-0.003 2.855-5.547c0.042-0.081 0.067-0.178 0.067-0.28 0-0.34-0.276-0.616-0.616-0.616-0 0-0.001 0-0.001 0h0z"></path>
<path fill="#ccc" style="fill: var(--color5, #ccc)" d="M9.011 14.918c0.334 0.008 0.602 0.281 0.602 0.616 0 0.102-0.025 0.199-0.069 0.284l0.002-0.003-2.856 5.547c-0.104 0.2-0.309 0.335-0.546 0.336h-0l-1.86 0.002c0.015 0.001 0.033 0.002 0.050 0.002h0l3.041-0.005c0.237-0.001 0.442-0.136 0.545-0.332l0.002-0.003 2.856-5.547c0.043-0.081 0.067-0.178 0.067-0.28 0-0.34-0.276-0.616-0.616-0.616-0.001 0-0.002 0-0.003 0h0z"></path>
<path fill="#3e3e3e" style="fill: var(--color2, #3e3e3e)" d="M5.639 10.254c-2.093 0-3.805 1.708-3.805 3.801s1.712 3.805 3.805 3.805c2.093 0 3.801-1.712 3.801-3.805s-1.708-3.801-3.801-3.801z"></path>
<path fill="#242424" style="fill: var(--color4, #242424)" d="M13.291 5.217c-0.003-0-0.007-0-0.011-0-0.046 0-0.092 0.005-0.135 0.015l0.004-0.001-0.687 0.149c0.015 0.014 0.029 0.027 0.042 0.042l0 0 4.387 4.814c0.098 0.109 0.158 0.253 0.158 0.412 0 0.294-0.206 0.54-0.481 0.601l-0.004 0.001-7.166 1.553c0.109 0.1 0.255 0.161 0.415 0.161 0.046 0 0.091-0.005 0.135-0.015l-0.004 0.001 7.851-1.701c0.279-0.062 0.485-0.308 0.485-0.602 0-0.159-0.060-0.303-0.159-0.413l0 0.001-4.387-4.814c-0.11-0.123-0.268-0.201-0.444-0.205h-0.001z"></path>
<path fill="#ccc" style="fill: var(--color5, #ccc)" d="M5.756 6.842c-0.013 0.001-0.025 0.001-0.037 0.003l0.003-0c-0.027 0.004-0.050 0.009-0.073 0.015l0.004-0.001-0.684 0.148c0.021 0.019 0.039 0.039 0.057 0.060l0.001 0.001 4.032 4.892c0.086 0.105 0.138 0.241 0.138 0.389 0 0.293-0.205 0.539-0.479 0.601l-0.004 0.001-0.819 0.177 0.455 0.109c0.041 0.010 0.088 0.015 0.137 0.015s0.095-0.006 0.141-0.016l-0.004 0.001 1.323-0.286c0.279-0.063 0.484-0.308 0.484-0.602 0-0.148-0.052-0.284-0.14-0.391l0.001 0.001-4.032-4.892c-0.114-0.138-0.285-0.225-0.476-0.225-0.009 0-0.018 0-0.027 0.001l0.001-0z"></path>
<path fill="#242424" style="fill: var(--color4, #242424)" d="M5.639 10.253c-1.362 0-2.559 0.725-3.232 1.807 0.582-0.362 1.267-0.575 2-0.575 2.093 0 3.8 1.708 3.8 3.801 0 0.733-0.213 1.417-0.575 1.999 1.082-0.673 1.807-1.869 1.807-3.231 0-2.093-1.707-3.801-3.8-3.801z"></path>
<path fill="#242424" style="fill: var(--color4, #242424)" d="M17.023 14.918c0.339 0.001 0.613 0.277 0.613 0.616 0 0.113-0.030 0.219-0.083 0.31l0.002-0.003-3.209 5.538c-0.109 0.183-0.306 0.304-0.531 0.304-0 0-0 0-0 0h0l-6.476 0.012c0.010 0.001 0.023 0.002 0.036 0.002l0.001 0 7.671-0.014c0 0 0 0 0 0 0.225 0 0.422-0.121 0.53-0.302l0.002-0.003 3.209-5.538c0.051-0.088 0.082-0.194 0.082-0.307 0-0.339-0.274-0.615-0.613-0.616h-0z"></path>
<path fill="#ccc" style="fill: var(--color5, #ccc)" d="M24.463 14.918c0.334 0.008 0.602 0.281 0.602 0.616 0 0.102-0.025 0.199-0.069 0.284l0.002-0.003-2.841 5.529c-0.104 0.201-0.311 0.336-0.548 0.336-0 0-0.001 0-0.001 0l-6.588 0.005c0.008 0.001 0.017 0.001 0.027 0.001l7.793-0.005c0 0 0.001 0 0.001 0 0.238 0 0.444-0.135 0.547-0.332l0.002-0.003 2.841-5.529c0.043-0.081 0.067-0.178 0.067-0.28 0-0.339-0.274-0.614-0.612-0.616h-0z"></path>
<path fill="#242424" style="fill: var(--color4, #242424)" d="M28.352 14.919c0.325 0.018 0.581 0.286 0.582 0.613v5.555c-0.001 0.317-0.24 0.577-0.548 0.611l-0.003 0 1.164 0.005c0.001 0 0.002 0 0.002 0 0.34 0 0.615-0.275 0.616-0.615v-5.555c-0.001-0.339-0.277-0.614-0.616-0.614-0.001 0-0.002 0-0.002 0h0z"></path>
</symbol>
</defs>
</svg>
